<svg width="62" height="69" viewBox="0 0 62 69" fill="none" xmlns="http://www.w3.org/2000/svg">
<path d="M59.9232 25.126H45.4417C44.3031 25.126 43.3926 26.0461 43.3926 27.1418V66.9412C43.3926 68.0366 44.3031 68.9567 45.4417 68.9567H59.9232C61.0612 68.9567 61.972 68.0366 61.972 66.9412V27.1418C62.0176 26.0461 61.1067 25.126 59.9232 25.126Z" fill="#00D097"/>
<path d="M13.423 43.9139H2.07437C0.924331 43.9139 0.00390625 44.7523 0.00390625 45.7508V67.1638C0.00390625 68.1617 0.924331 69.0003 2.12054 69.0003H13.4691C14.6191 69.0003 15.5395 68.1617 15.5395 67.1638V45.7507C15.5396 44.7522 14.5734 43.9139 13.423 43.9139ZM35.1486 34.4531H23.7135C22.5749 34.4531 21.6638 35.3429 21.6638 36.4021V67.0076C21.6638 68.0668 22.5749 68.9566 23.7135 68.9566H35.1486C36.2876 68.9566 37.1987 68.0668 37.1987 67.0076V36.4021C37.1986 35.3006 36.2875 34.4531 35.1486 34.4531Z" fill="#C1FFEE"/>
<path d="M59.0592 0H43.3512C41.6835 0 40.3676 1.33417 40.3676 3.01247C40.3676 4.64815 41.6835 5.98201 43.3512 6.02525H51.1175C46.5104 9.64031 40.3236 13.2987 32.5133 16.9568C21.7195 21.949 13.8053 25.3059 2.57264 26.9416C0.905601 27.1998 -0.191746 28.706 0.0279308 30.3417V30.3843C0.247297 31.9767 1.78296 33.1388 3.40652 32.8805C15.2091 31.159 23.6941 27.673 35.0145 22.3797C43.8776 18.2481 50.8542 14.0306 56.0315 9.72668V17.5596C56.0315 19.1947 57.348 20.5292 59.0154 20.5721C60.6827 20.5721 61.9989 19.2376 61.9989 17.5596V2.96954C62.0427 1.33417 60.7268 6.88955e-08 59.0592 0Z" fill="#71E1C3"/>
</svg>
