<svg width="77" height="54" viewBox="0 0 77 54" fill="none" xmlns="http://www.w3.org/2000/svg">
<g opacity="0.7028">
<path d="M1.52106 48V36.72H5.71306C7.60106 36.72 9.05706 37.2053 10.0811 38.176C11.1157 39.1467 11.6331 40.5387 11.6331 42.352C11.6331 44.1547 11.1157 45.5467 10.0811 46.528C9.05706 47.5093 7.60106 48 5.71306 48H1.52106ZM3.56906 46.304H5.58506C8.18773 46.304 9.48906 44.9867 9.48906 42.352C9.48906 39.728 8.18773 38.416 5.58506 38.416H3.56906V46.304ZM17.0846 48.16C16.2739 48.16 15.5699 47.9947 14.9726 47.664C14.3752 47.3333 13.9112 46.864 13.5806 46.256C13.2499 45.6373 13.0846 44.912 13.0846 44.08C13.0846 43.248 13.2499 42.528 13.5806 41.92C13.9112 41.312 14.3752 40.8427 14.9726 40.512C15.5699 40.1813 16.2739 40.016 17.0846 40.016C17.8952 40.016 18.5992 40.1813 19.1966 40.512C19.7939 40.8427 20.2579 41.312 20.5886 41.92C20.9192 42.528 21.0846 43.248 21.0846 44.08C21.0846 44.912 20.9192 45.6373 20.5886 46.256C20.2579 46.864 19.7939 47.3333 19.1966 47.664C18.5992 47.9947 17.8952 48.16 17.0846 48.16ZM17.0846 46.64C17.6819 46.64 18.1619 46.4267 18.5246 46C18.8872 45.5627 19.0686 44.9227 19.0686 44.08C19.0686 43.2267 18.8872 42.592 18.5246 42.176C18.1619 41.7493 17.6819 41.536 17.0846 41.536C16.4872 41.536 16.0072 41.7493 15.6446 42.176C15.2819 42.592 15.1006 43.2267 15.1006 44.08C15.1006 44.9227 15.2819 45.5627 15.6446 46C16.0072 46.4267 16.4872 46.64 17.0846 46.64ZM26.3513 48.16C25.53 48.16 24.8153 47.9947 24.2073 47.664C23.5993 47.3227 23.13 46.8427 22.7993 46.224C22.4686 45.6053 22.3033 44.88 22.3033 44.048C22.3033 43.216 22.4686 42.5013 22.7993 41.904C23.13 41.296 23.5993 40.832 24.2073 40.512C24.8153 40.1813 25.53 40.016 26.3513 40.016C26.8526 40.016 27.3486 40.096 27.8393 40.256C28.33 40.416 28.7353 40.64 29.0553 40.928L28.4633 42.32C28.186 42.0747 27.8713 41.888 27.5193 41.76C27.178 41.632 26.8473 41.568 26.5273 41.568C25.834 41.568 25.2953 41.7867 24.9113 42.224C24.538 42.6507 24.3513 43.264 24.3513 44.064C24.3513 44.8533 24.538 45.4773 24.9113 45.936C25.2953 46.384 25.834 46.608 26.5273 46.608C26.8366 46.608 27.1673 46.544 27.5193 46.416C27.8713 46.288 28.186 46.096 28.4633 45.84L29.0553 47.248C28.7353 47.5253 28.3246 47.7493 27.8233 47.92C27.3326 48.08 26.842 48.16 26.3513 48.16ZM33.1142 48.16C31.1942 48.16 30.2342 47.0827 30.2342 44.928V40.176H32.2342V44.96C32.2342 45.5147 32.3462 45.9253 32.5702 46.192C32.7942 46.4587 33.1515 46.592 33.6422 46.592C34.1755 46.592 34.6129 46.4107 34.9542 46.048C35.2955 45.6747 35.4662 45.184 35.4662 44.576V40.176H37.4662V48H35.5142V46.832C34.9915 47.7173 34.1915 48.16 33.1142 48.16ZM39.5798 48V40.176H41.5318V41.376C41.7665 40.9493 42.0918 40.6187 42.5078 40.384C42.9238 40.1387 43.4038 40.016 43.9478 40.016C45.1211 40.016 45.8891 40.528 46.2518 41.552C46.4971 41.072 46.8491 40.6987 47.3078 40.432C47.7665 40.1547 48.2891 40.016 48.8758 40.016C50.6358 40.016 51.5158 41.088 51.5158 43.232V48H49.5158V43.312C49.5158 42.7147 49.4145 42.2773 49.2118 42C49.0198 41.7227 48.6891 41.584 48.2198 41.584C47.6971 41.584 47.2865 41.7707 46.9878 42.144C46.6891 42.5067 46.5398 43.0133 46.5398 43.664V48H44.5398V43.312C44.5398 42.7147 44.4385 42.2773 44.2358 42C44.0438 41.7227 43.7185 41.584 43.2598 41.584C42.7371 41.584 42.3265 41.7707 42.0278 42.144C41.7291 42.5067 41.5798 43.0133 41.5798 43.664V48H39.5798ZM57.4351 48.16C56.5497 48.16 55.7871 47.9947 55.1471 47.664C54.5071 47.3333 54.0111 46.864 53.6591 46.256C53.3177 45.648 53.1471 44.928 53.1471 44.096C53.1471 43.2853 53.3124 42.576 53.6431 41.968C53.9844 41.36 54.4484 40.8853 55.0351 40.544C55.6324 40.192 56.3097 40.016 57.0671 40.016C58.1764 40.016 59.0511 40.368 59.6911 41.072C60.3417 41.776 60.6671 42.736 60.6671 43.952V44.544H55.0671C55.2164 45.9413 56.0164 46.64 57.4671 46.64C57.9044 46.64 58.3417 46.576 58.7791 46.448C59.2164 46.3093 59.6164 46.096 59.9791 45.808L60.5391 47.152C60.1657 47.4613 59.6964 47.7067 59.1311 47.888C58.5657 48.0693 58.0004 48.16 57.4351 48.16ZM57.1471 41.376C56.5604 41.376 56.0857 41.5573 55.7231 41.92C55.3604 42.2827 55.1417 42.7733 55.0671 43.392H59.0031C58.9604 42.7413 58.7791 42.2453 58.4591 41.904C58.1497 41.552 57.7124 41.376 57.1471 41.376ZM62.2509 48V40.176H64.2029V41.392C64.4696 40.944 64.8269 40.6027 65.2749 40.368C65.7336 40.1333 66.2456 40.016 66.8109 40.016C68.6563 40.016 69.5789 41.088 69.5789 43.232V48H67.5789V43.328C67.5789 42.72 67.4616 42.2773 67.2269 42C67.0029 41.7227 66.6509 41.584 66.1709 41.584C65.5843 41.584 65.1149 41.7707 64.7629 42.144C64.4216 42.5067 64.2509 42.992 64.2509 43.6V48H62.2509ZM75.1943 48.16C73.125 48.16 72.0903 47.136 72.0903 45.088V41.68H70.5863V40.176H72.0903V37.84H74.0903V40.176H76.4583V41.68H74.0903V44.976C74.0903 45.488 74.2023 45.872 74.4263 46.128C74.6503 46.384 75.013 46.512 75.5143 46.512C75.6636 46.512 75.8183 46.496 75.9783 46.464C76.1383 46.4213 76.3036 46.3787 76.4743 46.336L76.7783 47.808C76.5863 47.9147 76.341 48 76.0423 48.064C75.7543 48.128 75.4716 48.16 75.1943 48.16Z" fill="#0A1629"/>
<path d="M0.289062 49.712H76.7143V50.416H0.289062V49.712Z" fill="#0A1629"/>
</g>
<path d="M26.75 0H49.25C51.75 0 53 1.25 53 3.75V26.25C53 28.75 51.75 30 49.25 30H26.75C24.25 30 23 28.75 23 26.25V3.75C23 1.25 24.25 0 26.75 0Z" fill="#E2BF7A"/>
<path d="M27.4531 2.69531H48.5469V27.3047H27.4531V2.69531Z" fill="white"/>
<path d="M26.8672 5.03906H49.1328V26.1328H26.8672V5.03906Z" fill="#E9EBF1"/>
<path d="M25.6953 7.38281H50.3047V24.9609H25.6953V7.38281Z" fill="white"/>
<path d="M24.5234 9.72656H51.4766V27.3047H24.5234V9.72656Z" fill="#E9EBF1"/>
<path d="M53 9.1519V26.25C53 28.3211 51.3211 30 49.25 30H26.75C24.6789 30 23 28.3211 23 26.25V9.15161C23 9.4723 23.0823 9.78763 23.2389 10.0675C23.3956 10.3473 23.6214 10.5823 23.8947 10.7499C30.2974 14.6771 34.9992 16.6407 38 16.6407C41.0007 16.6407 45.7025 14.6771 52.1053 10.7499C52.3786 10.5823 52.6044 10.3474 52.761 10.0676C52.9177 9.78782 52.9999 9.47254 53 9.1519Z" fill="#FFD786"/>
<path d="M36.125 20.3906C36.125 20.8879 36.3225 21.3648 36.6742 21.7165C37.0258 22.0681 37.5027 22.2656 38 22.2656C38.4973 22.2656 38.9742 22.0681 39.3258 21.7165C39.6775 21.3648 39.875 20.8879 39.875 20.3906C39.875 19.8933 39.6775 19.4164 39.3258 19.0648C38.9742 18.7132 38.4973 18.5156 38 18.5156C37.5027 18.5156 37.0258 18.7132 36.6742 19.0648C36.3225 19.4164 36.125 19.8933 36.125 20.3906Z" fill="#CBA559"/>
</svg>
