<svg width="47" height="22" viewBox="0 0 47 22" fill="none" xmlns="http://www.w3.org/2000/svg">
<path d="M0 12.5968V5.20655C0 4.46744 0 4.46744 0.492686 4.46752H1.97074C3.4488 4.46744 3.20246 4.46744 3.20246 5.20655V10.8724C3.20246 11.8577 2.94187 13.9392 4.43417 14.0748C7.14394 14.3212 7.30817 12.9252 7.63663 11.6114V4.96032C7.63663 4.3691 8.12931 4.46763 8.37566 4.46752C8.622 4.46752 9.31176 4.46772 10.1001 4.46752C10.8391 4.46732 10.8391 4.57739 10.8391 4.9602V15.7993C10.8391 16.1934 10.8391 16.2919 10.5927 16.292L8.37566 16.2919C7.88297 16.2919 7.88297 16.2919 7.88297 16.0456V14.8138C6.8976 15.3065 6.6481 16.8254 3.20246 16.5382C0.246343 16.2919 0 13.7464 0 12.5968Z" fill="#00A5D5"/>
<path fill-rule="evenodd" clip-rule="evenodd" d="M14.7808 16.5344C17.737 16.7192 20.9394 13.5308 20.9394 10.1295C20.9394 6.72823 20.2004 4.21729 16.0126 4.21729C13.0564 4.21729 10.8394 8.15877 10.8394 10.6222C10.8394 14.0235 10.8394 16.2881 14.7808 16.5344ZM16.0124 14.315C17.7368 14.315 19.2148 12.0979 19.2148 10.1272C19.4612 7.91008 18.7222 6.67837 16.9978 6.67837C14.7807 6.67837 13.7953 9.70051 13.7953 11.6052C13.7953 13.5099 15.027 14.315 16.0124 14.315Z" fill="#001A98"/>
<path d="M18.23 15.5542L21.1861 0.773626C21.4324 0.0345662 21.4318 0.00606836 21.8 0.00604652C21.9615 0.0060474 22.7833 -0.0195037 23.6495 0.0344364C24.846 0.108941 24.7715 -0.131281 24.6349 0.527127C23.7316 4.87918 21.8759 13.8296 21.6788 14.815C21.4817 15.8004 21.4324 16.2931 21.4324 16.2931H18.23L18.23 15.5542Z" fill="#001A98"/>
<path d="M41.8969 5.20654C43.2553 5.20654 44.3741 5.61293 45.0813 6.43826C45.7885 7.26358 46.0666 8.44555 46.0666 9.99498V17.5124H42.8632V10.6261C42.8632 9.67618 42.7092 9.22416 42.4011 8.75699C42.1 8.28983 41.6239 8.05625 40.9727 8.05625C40.0764 8.05625 39.4287 8.39105 39.0296 9.06065C38.6305 9.73025 38.431 10.832 38.431 12.3658L38.1054 17.5124H35.2275V5.4518H38.1054V7.1336C38.4555 6.50292 38.7775 5.97814 39.5968 5.55302C40.227 5.22601 41.0917 5.20654 41.8969 5.20654Z" fill="#00A5D5"/>
<path fill-rule="evenodd" clip-rule="evenodd" d="M31.2839 5.20556C28.3278 5.0208 24.879 8.45553 24.879 11.8568C24.879 15.2581 25.618 17.769 29.8058 17.769C32.7619 17.769 35.2256 14.0739 35.2256 11.6105C35.2256 8.20919 35.2256 5.45191 31.2839 5.20556ZM30.0517 7.67025C28.3419 7.67025 26.895 9.81581 26.895 11.723C26.6508 13.8686 27.3836 15.0605 29.0934 15.0605C31.2917 15.0605 32.0224 11.977 32.0224 10.1337C32.0224 8.2904 31.0287 7.67025 30.0517 7.67025Z" fill="#001A98"/>
<path d="M27.9096 6.19716L24.8795 20.9702C24.6331 21.7093 24.6331 21.9556 24.3868 21.9556C24.1935 22.0018 23.2822 22.0094 22.416 21.9555C21.2196 21.881 21.2773 21.9556 21.4307 21.2166C22.3339 16.8646 24.2638 7.92172 24.4609 6.93635C24.6579 5.95098 24.7072 5.45823 24.7072 5.45823H27.9097L27.9096 6.19716Z" fill="#001A98"/>
</svg>
