<svg width="44" height="52" viewBox="0 0 44 52" fill="none" xmlns="http://www.w3.org/2000/svg">
<path d="M20.4085 5.74988L15.537 0.000412559H10.0113L14.8828 5.73266H20.4085V5.74988ZM34.765 5.74988L29.8762 0.000412559H24.3505L29.2221 5.73266H34.765V5.74988ZM27.5867 5.74988L22.7152 0.000412559H17.1895L22.061 5.73266H27.5867V5.74988ZM36.8306 0.000412559H31.5287L36.4003 5.73266H38.9824V2.15216C38.988 1.86804 38.9362 1.58572 38.83 1.32212C38.7239 1.05852 38.5656 0.81907 38.3647 0.618131C38.1637 0.417193 37.9243 0.258905 37.6607 0.152758C37.3971 0.0466121 37.1147 -0.00520586 36.8306 0.000412559ZM8.35873 0.000412559H8.15216C7.86804 -0.00520586 7.58572 0.0466121 7.32212 0.152758C7.05852 0.258905 6.81907 0.417193 6.61813 0.618131C6.41719 0.81907 6.2589 1.05852 6.15276 1.32212C6.04661 1.58572 5.99479 1.86804 6.00041 2.15216V5.73266H13.2475L8.35873 0.000412559ZM6.00041 24.2549C5.99479 24.539 6.04661 24.8213 6.15276 25.0849C6.2589 25.3485 6.41719 25.588 6.61813 25.7889C6.81907 25.9899 7.05852 26.1481 7.32212 26.2543C7.58572 26.3604 7.86804 26.4123 8.15216 26.4066H36.8478C37.132 26.4123 37.4143 26.3604 37.6779 26.2543C37.9415 26.1481 38.1809 25.9899 38.3819 25.7889C38.5828 25.588 38.7411 25.3485 38.8472 25.0849C38.9534 24.8213 39.0052 24.539 38.9996 24.2549V7.17864H6.00041V24.2549Z" fill="#222222"/>
<path d="M18.2744 13.0314C18.2744 12.1191 19.0146 11.7059 19.8753 11.7059C20.1749 11.7023 20.4707 11.7733 20.736 11.9125L26.8125 15.4414C27.0545 15.5702 27.2569 15.7624 27.398 15.9974C27.5391 16.2324 27.6136 16.5013 27.6136 16.7755C27.6136 17.0496 27.5391 17.3185 27.398 17.5535C27.2569 17.7885 27.0545 17.9807 26.8125 18.1095L20.736 21.6212C20.4743 21.7697 20.1759 21.8413 19.8753 21.8278C19.0146 21.8278 18.2744 21.3974 18.2744 20.5023V13.0314Z" fill="#609DCC"/>
<g opacity="0.7028">
<path d="M5.848 46L0.824 34.72H3.016L6.744 43.376L10.472 34.72H12.584L7.56 46H5.848ZM13.3183 36.496V34.544H15.5583V36.496H13.3183ZM13.4463 46V38.176H15.4463V46H13.4463ZM20.5324 46.16C19.8497 46.16 19.247 45.9947 18.7244 45.664C18.2124 45.3333 17.8124 44.864 17.5244 44.256C17.2364 43.6373 17.0924 42.912 17.0924 42.08C17.0924 41.2373 17.2364 40.5173 17.5244 39.92C17.8124 39.312 18.2124 38.8427 18.7244 38.512C19.247 38.1813 19.8497 38.016 20.5324 38.016C21.087 38.016 21.5884 38.1387 22.0364 38.384C22.4844 38.6293 22.8204 38.9547 23.0444 39.36V34.72H25.0444V46H23.0924V44.704C22.879 45.152 22.543 45.5093 22.0844 45.776C21.6257 46.032 21.1084 46.16 20.5324 46.16ZM21.0924 44.64C21.6897 44.64 22.1697 44.4267 22.5324 44C22.895 43.5627 23.0764 42.9227 23.0764 42.08C23.0764 41.2267 22.895 40.592 22.5324 40.176C22.1697 39.7493 21.6897 39.536 21.0924 39.536C20.495 39.536 20.015 39.7493 19.6524 40.176C19.2897 40.592 19.1084 41.2267 19.1084 42.08C19.1084 42.9227 19.2897 43.5627 19.6524 44C20.015 44.4267 20.495 44.64 21.0924 44.64ZM30.9741 46.16C30.0888 46.16 29.3261 45.9947 28.6861 45.664C28.0461 45.3333 27.5501 44.864 27.1981 44.256C26.8568 43.648 26.6861 42.928 26.6861 42.096C26.6861 41.2853 26.8515 40.576 27.1821 39.968C27.5235 39.36 27.9875 38.8853 28.5741 38.544C29.1715 38.192 29.8488 38.016 30.6061 38.016C31.7155 38.016 32.5901 38.368 33.2301 39.072C33.8808 39.776 34.2061 40.736 34.2061 41.952V42.544H28.6061C28.7555 43.9413 29.5555 44.64 31.0061 44.64C31.4435 44.64 31.8808 44.576 32.3181 44.448C32.7555 44.3093 33.1555 44.096 33.5181 43.808L34.0781 45.152C33.7048 45.4613 33.2355 45.7067 32.6701 45.888C32.1048 46.0693 31.5395 46.16 30.9741 46.16ZM30.6861 39.376C30.0995 39.376 29.6248 39.5573 29.2621 39.92C28.8995 40.2827 28.6808 40.7733 28.6061 41.392H32.5421C32.4995 40.7413 32.3181 40.2453 31.9981 39.904C31.6888 39.552 31.2515 39.376 30.6861 39.376ZM39.358 46.16C38.5473 46.16 37.8433 45.9947 37.246 45.664C36.6487 45.3333 36.1847 44.864 35.854 44.256C35.5233 43.6373 35.358 42.912 35.358 42.08C35.358 41.248 35.5233 40.528 35.854 39.92C36.1847 39.312 36.6487 38.8427 37.246 38.512C37.8433 38.1813 38.5473 38.016 39.358 38.016C40.1687 38.016 40.8727 38.1813 41.47 38.512C42.0673 38.8427 42.5313 39.312 42.862 39.92C43.1927 40.528 43.358 41.248 43.358 42.08C43.358 42.912 43.1927 43.6373 42.862 44.256C42.5313 44.864 42.0673 45.3333 41.47 45.664C40.8727 45.9947 40.1687 46.16 39.358 46.16ZM39.358 44.64C39.9553 44.64 40.4353 44.4267 40.798 44C41.1607 43.5627 41.342 42.9227 41.342 42.08C41.342 41.2267 41.1607 40.592 40.798 40.176C40.4353 39.7493 39.9553 39.536 39.358 39.536C38.7607 39.536 38.2807 39.7493 37.918 40.176C37.5553 40.592 37.374 41.2267 37.374 42.08C37.374 42.9227 37.5553 43.5627 37.918 44C38.2807 44.4267 38.7607 44.64 39.358 44.64Z" fill="#0A1629"/>
<path d="M1 47.712H43.966V48.416H1V47.712Z" fill="#0A1629"/>
</g>
</svg>
