<svg width="151" height="72" viewBox="0 0 151 72" fill="none" xmlns="http://www.w3.org/2000/svg">
<path d="M0 41.1172V16.9942C0 14.5816 0 14.5816 1.6082 14.5819C1.87623 14.5819 3.2164 14.5821 6.43279 14.5819C11.2574 14.5816 10.4533 14.5816 10.4533 16.9942V35.4883C10.4533 38.7046 9.6027 45.4989 14.4738 45.9416C23.3189 46.7456 23.8549 42.1891 24.9271 37.9006V16.1905C24.9271 14.2606 26.5353 14.5823 27.3394 14.5819C28.1435 14.5819 30.3949 14.5826 32.9681 14.5819C35.3804 14.5813 35.3804 14.9405 35.3804 16.1901V51.5704C35.3804 52.857 35.3804 53.1784 34.5763 53.1786C32.9681 53.1784 29.2692 53.1784 27.3394 53.1784C25.7312 53.1784 25.7312 53.1784 25.7312 52.3743V48.3538C22.5148 49.962 21.7004 54.9198 10.4533 53.9825C0.804099 53.1784 0 44.8696 0 41.1172Z" fill="#63A1D0"/>
<path fill-rule="evenodd" clip-rule="evenodd" d="M48.2445 53.9701C57.8937 54.5732 68.347 44.1658 68.347 33.0635C68.347 21.9612 65.9347 13.7651 52.265 13.7651C42.6158 13.7651 35.3789 26.6307 35.3789 34.6717C35.3789 45.774 35.3789 53.166 48.2445 53.9701ZM52.265 46.7254C57.8937 46.7254 62.7182 39.4885 62.7182 33.0557C63.5223 25.8188 61.11 21.7983 55.4814 21.7983C48.2445 21.7983 45.0281 31.663 45.0281 37.8803C45.0281 44.0976 49.0486 46.7254 52.265 46.7254Z" fill="#214B7D"/>
<path d="M59.504 50.7712L69.1532 2.52523C69.9572 0.112829 69.955 0.019808 71.157 0.0197367C71.684 0.0197396 74.3667 -0.0636629 77.1941 0.112405C81.0994 0.355599 80.8565 -0.42852 80.4105 1.72062C77.4621 15.9264 71.4046 45.142 70.7613 48.3584C70.118 51.5747 69.9572 53.1832 69.9572 53.1832H59.504C59.504 53.1832 59.5038 52.3791 59.504 50.7712Z" fill="#214B7D"/>
<path d="M136.758 16.9951C141.192 16.9951 144.844 18.3216 147.152 21.0156C149.461 23.7096 150.369 27.5677 150.369 32.6253V57.1633H139.912V34.6853C139.912 31.5847 139.409 30.1092 138.404 28.5843C137.421 27.0594 135.867 26.297 133.741 26.297C130.816 26.297 128.702 27.3898 127.399 29.5755C126.096 31.7612 125.445 35.3574 125.445 40.3641L124.382 57.1633H114.988V17.7957H124.382V23.2853C125.525 21.2267 126.576 19.5137 129.25 18.1261C131.307 17.0587 134.13 16.9951 136.758 16.9951Z" fill="#63A1D0"/>
<path fill-rule="evenodd" clip-rule="evenodd" d="M102.114 16.9934C92.4649 16.3903 81.2076 27.6018 81.2076 38.7041C81.2076 49.8064 83.6199 58.0024 97.2895 58.0024C106.939 58.0024 114.98 45.941 114.98 37.9C114.98 26.7977 114.98 17.7975 102.114 16.9934ZM98.0927 25.0386C92.5116 25.0386 87.7889 32.0421 87.7889 38.2673C86.9916 45.2708 89.3835 49.1616 94.9646 49.1616C102.14 49.1616 104.525 39.0963 104.525 33.0796C104.525 27.0629 101.282 25.0386 98.0927 25.0386Z" fill="#214B7D"/>
<path d="M91.1015 20.2291L81.2105 68.4505C80.4065 70.8629 80.4064 71.6669 79.6023 71.6669C78.9715 71.8179 75.9969 71.8426 73.1695 71.6666C69.2642 71.4234 69.4525 71.6669 69.9531 69.2548C72.9015 55.049 79.2009 25.8583 79.8442 22.6419C80.4875 19.4255 80.6483 17.8171 80.6483 17.8171H91.1015C91.1015 17.8171 91.1016 18.6211 91.1015 20.2291Z" fill="#214B7D"/>
</svg>
