<svg width="266" height="170" viewBox="0 0 266 170" fill="none" xmlns="http://www.w3.org/2000/svg">
<rect x="1" y="1" width="264" height="168" rx="20" fill="#2D74FF" fill-opacity="0.02" stroke="#2D74FF" stroke-opacity="0.5" stroke-linejoin="bevel"/>
<g clip-path="url(#clip0_1252_844)">
<path d="M181 73H145L158.462 59.5375C151.656 52.75 142.619 49 133 49C123.381 49 114.344 52.75 107.537 59.5375C100.75 66.3438 97 75.3812 97 85C97 94.6188 100.75 103.656 107.537 110.462C114.344 117.25 123.381 121 133 121C142.619 121 151.656 117.25 158.462 110.462C159.025 109.9 159.569 109.319 160.094 108.719L169.131 116.613C160.319 126.662 147.4 133 133 133C106.488 133 85 111.512 85 85C85 58.4875 106.488 37 133 37C146.256 37 158.256 42.3813 166.938 51.0625L181 37V73Z" fill="#3C5686"/>
<path d="M150.541 78.7773H141.692C139.606 78.7773 136.693 80.0002 135.218 81.495L120.356 96.5575C118.882 98.0522 118.882 100.498 120.356 101.993L131.426 113.212C132.901 114.707 135.314 114.707 136.789 113.212L151.651 98.1495C153.126 96.6547 154.333 93.7023 154.333 91.5885V82.6207C154.333 80.5068 152.626 78.7773 150.541 78.7773ZM145.484 91.5885C143.39 91.5885 141.692 89.8678 141.692 87.7451C141.692 85.6225 143.39 83.9018 145.484 83.9018C147.579 83.9018 149.276 85.6225 149.276 87.7451C149.276 89.8678 147.579 91.5885 145.484 91.5885ZM114.777 100.181L128.301 113.888C126.869 114.655 125.044 114.43 123.842 113.212L112.772 101.993C111.297 100.498 111.297 98.0522 112.772 96.5575L127.634 81.495C129.109 80.0002 132.022 78.7773 134.108 78.7773L114.777 98.3693C114.285 98.8675 114.285 99.6827 114.777 100.181Z" fill="#3C5686"/>
</g>
<defs>
<clipPath id="clip0_1252_844">
<rect width="96" height="96" fill="white" transform="translate(85 37)"/>
</clipPath>
</defs>
</svg>

