<svg width="498" height="477" viewBox="0 0 498 477" fill="none" xmlns="http://www.w3.org/2000/svg">
<path d="M61.1879 313.364C118.789 377.242 167.51 328.161 223.417 301.423C320.793 254.854 432.397 370.315 482.487 308.574C519.585 262.847 486.816 145.044 408.595 90.4367C340.476 42.8829 264.201 43.4041 174.28 82.2007C78.5121 123.521 -0.801582 244.62 61.1879 313.364Z" fill="url(#paint0_linear_1570_1758)" fill-opacity="0.1"/>
<path d="M390.565 462.853C434.181 463.653 469.678 456.678 469.851 447.274C470.023 437.87 434.805 429.598 391.19 428.798C347.574 427.998 312.077 434.973 311.905 444.377C311.732 453.781 346.95 462.053 390.565 462.853Z" fill="#F3F3F3"/>
<path d="M8.14154 402.342H173.81L293.453 477H122.775C110.181 477 97.8228 473.585 87.0152 467.12L3.96898 417.443C-3.10954 413.209 -0.107242 402.342 8.14154 402.342Z" fill="url(#paint1_linear_1570_1758)"/>
<mask id="mask0_1570_1758" style="mask-type:alpha" maskUnits="userSpaceOnUse" x="366" y="382" width="106" height="65">
<path d="M367.492 438.263C372.938 450.226 400.534 449.371 429.129 436.353C457.723 423.336 476.489 403.085 471.043 391.122C465.597 379.158 438.001 380.013 409.406 393.031C380.811 406.049 362.046 426.3 367.492 438.263Z" fill="#F4A0D7"/>
</mask>
<g mask="url(#mask0_1570_1758)">
<path d="M374.707 454.112C380.153 466.075 407.749 465.221 436.343 452.203C464.938 439.185 483.704 418.934 478.258 406.971C472.811 395.008 445.216 395.863 416.621 408.881C388.026 421.898 369.261 442.149 374.707 454.112Z" fill="#D5EDFF"/>
</g>
<mask id="mask1_1570_1758" style="mask-type:alpha" maskUnits="userSpaceOnUse" x="362" y="350" width="80" height="96">
<path d="M367.473 443.292C377.898 451.299 401.863 437.59 421.001 412.674C440.14 387.757 447.204 361.067 436.779 353.06C426.355 345.053 402.39 358.762 383.251 383.678C364.113 408.595 357.049 435.285 367.473 443.292Z" fill="#C4C4C4"/>
</mask>
<g mask="url(#mask1_1570_1758)">
<path d="M381.284 453.901C391.708 461.908 415.674 448.2 434.812 423.283C453.95 398.366 461.014 371.676 450.59 363.67C440.165 355.663 416.2 369.371 397.062 394.288C377.924 419.205 370.86 445.894 381.284 453.901Z" fill="#A8DAFF"/>
</g>
<mask id="mask2_1570_1758" style="mask-type:alpha" maskUnits="userSpaceOnUse" x="353" y="349" width="43" height="100">
<path d="M368.39 447.939C379.699 449.322 391.545 428.532 394.851 401.503C398.157 374.474 391.67 351.442 380.362 350.059C369.054 348.676 357.207 369.466 353.901 396.495C350.595 423.524 357.082 446.556 368.39 447.939Z" fill="#8D8D8D"/>
</mask>
<g mask="url(#mask2_1570_1758)">
<path d="M383.371 449.771C394.679 451.154 406.526 430.364 409.832 403.335C413.137 376.306 406.65 353.274 395.342 351.891C384.034 350.508 372.187 371.298 368.882 398.327C365.576 425.356 372.063 448.388 383.371 449.771Z" fill="#63A1D0"/>
</g>
<path d="M120.893 371.895C141.638 392.586 146.008 431.83 145.599 448.866C134.981 431.456 111.606 406.243 95.3972 396.197C82.9189 388.462 55.0762 355.237 44.0898 334.978C53.9083 349.309 94.9618 346.033 120.893 371.895Z" fill="#4D73B9"/>
<path d="M87.7414 393.051C115.785 401.537 138.331 433.503 146.098 448.427C128.492 438.184 95.9879 426.98 76.9954 425.645C62.3739 424.616 22.1354 408.509 2.8457 395.969C18.2833 403.911 52.6867 382.446 87.7414 393.051Z" fill="#6785EF" fill-opacity="0.6"/>
<path d="M418.965 202.712L416.375 202.171V203.559L418.965 202.712Z" fill="#DADADA"/>
<path d="M347.62 314.89C337.848 361.885 313.855 471.186 301.636 473.556L293.66 469.927C286.104 467.066 242.686 376.369 217.951 330.052C227.823 305.312 240.352 254.078 245.278 233.213C246.321 228.8 251.452 226.773 255.226 229.29L333.965 281.803C344.835 289.052 350.281 302.099 347.62 314.89Z" fill="#4D73B9"/>
<path d="M135.056 248.284C133.256 252.664 165.181 385.842 172.608 401.257C182.214 409.238 257.556 458.503 273.971 467.707C294.49 479.21 297.338 476.654 302.126 473.538C291.829 473.363 265.331 371.129 255.508 331.761C253.053 321.925 247.344 313.277 239.175 307.275C213.953 288.742 158.906 248.602 150.124 244.791C138.667 239.818 137.307 242.809 135.056 248.284Z" fill="#DAE2FF"/>
<path d="M279.387 472.131C269.649 466.18 218.014 432.782 190.604 414.027C190.604 414.027 218.253 412.62 229.615 394.768C240.976 376.914 253.178 323.897 244.763 312.535C252.338 320.109 252.879 320.65 256.665 336.88C260.452 353.11 272.895 396.932 282.092 428.851C287.08 446.163 298.683 472.131 301.568 473.754C295.617 478.623 287.449 477.058 279.387 472.131Z" fill="#3C56C6" fill-opacity="0.2"/>
<path d="M171.996 253.083C172.451 265.502 175.634 292.959 177.429 312.537C177.619 314.612 178.787 316.47 180.579 317.533L205.741 332.47C208.024 333.828 210.878 332.006 210.604 329.364C208.308 307.255 205.262 279.16 204.762 265.506C204.111 247.716 199.554 231.876 188.974 228.035C178.395 224.195 171.305 234.212 171.996 253.083Z" fill="#BAC6F4"/>
<path d="M188.639 266.851C194.031 266.397 197.831 259.253 197.126 250.896C196.421 242.539 191.479 236.132 186.087 236.587C180.695 237.042 176.896 244.186 177.601 252.543C178.305 260.9 183.248 267.306 188.639 266.851Z" fill="white"/>
<path d="M209.858 2C197.463 16.5715 172.775 57.9745 173.177 107.017C173.679 168.318 194.784 198.969 209.858 222.082C224.932 245.196 225.435 274.841 220.912 291.423" stroke="#63A1D0" stroke-width="2.78633" stroke-linecap="round" stroke-linejoin="round" stroke-dasharray="9.29 13.93"/>
<path d="M266.402 368.259C325.372 330.93 331.456 243.186 319.9 201.481C305.042 147.865 262.106 133.073 265.131 86.4149C266.462 65.8551 285.731 42.1978 285.731 42.1978" stroke="#63A1D0" stroke-width="2.78633" stroke-linecap="round" stroke-linejoin="round" stroke-dasharray="9.29 13.93"/>
<path d="M258.828 339.044C289.125 289.814 278.724 257.352 257.746 231.926C221.565 188.07 154.415 231.926 116.545 191.892" stroke="#63A1D0" stroke-width="2.78633" stroke-linecap="round" stroke-linejoin="round" stroke-dasharray="9.29 13.93"/>
<path d="M274.176 15.5664L286.235 9.03467L307.338 59.7847L294.275 64.3067C289.753 62.6314 279.904 56.4678 274.679 45.212C269.453 33.9575 272.166 20.0895 274.176 15.5664Z" fill="url(#paint2_linear_1570_1758)"/>
<path d="M306.494 60.1357C315.447 56.3704 317.908 41.9126 311.991 27.8432C306.074 13.7739 294.02 5.42088 285.067 9.1862C276.113 12.9515 273.652 27.4093 279.569 41.4787C285.486 55.548 297.541 63.901 306.494 60.1357Z" fill="#63A1D0"/>
<path d="M76.8265 172.543C77.407 166.157 77.4151 168.167 77.4151 168.167L126.749 163.835C126.749 163.835 128.177 179.037 124.66 186.561C121.142 194.084 109.995 203.666 96.5632 201.567C77.9875 198.665 76.246 178.928 76.8265 172.543Z" fill="url(#paint3_linear_1570_1758)"/>
<path d="M98.6662 196.789C112.345 198.067 124.921 186.536 126.756 171.033C128.591 155.53 118.989 141.926 105.31 140.648C91.6318 139.369 79.0556 150.9 77.2208 166.403C75.3861 181.906 84.9875 195.51 98.6662 196.789Z" fill="#63A1D0"/>
<path d="M254.49 276.964V271.581L292.956 271.091L289.459 280.878C286.739 285 281.3 289.731 270.809 288.952C260.318 288.173 255.656 281.367 254.49 276.964Z" fill="url(#paint4_linear_1570_1758)"/>
<path d="M270.924 285.052C281.501 285.753 291.226 279.435 292.644 270.941C294.063 262.447 286.639 254.993 276.062 254.293C265.485 253.592 255.76 259.91 254.341 268.404C252.923 276.898 260.347 284.352 270.924 285.052Z" fill="#63A1D0"/>
<path d="M273.067 155.619L278.953 146.356L331.267 182.554L323.586 192.064C318.052 193.213 303.64 192.308 291.041 182.664C279.936 174.163 273.022 162.378 273.067 155.619Z" fill="url(#paint5_linear_1570_1758)"/>
<path d="M331.029 182.773C336.18 175.354 328.675 161.231 314.266 151.227C299.858 141.223 284.002 139.127 278.852 146.546C273.701 153.965 281.206 168.088 295.614 178.092C310.022 188.096 325.878 190.191 331.029 182.773Z" fill="#63A1D0"/>
<path d="M153.656 80.264L147.916 72.4181L211.511 36.6343L216.068 46.8393C213.746 51.3196 204.137 61.5525 189.847 68.5718C174.958 75.8871 159.661 82.3863 153.656 80.264Z" fill="url(#paint6_linear_1570_1758)"/>
<path d="M147.728 71.8377C149.729 75.4604 165.572 70.5422 183.114 60.8525C200.657 51.1627 213.255 40.3709 211.254 36.7481C209.253 33.1253 193.41 38.0435 175.868 47.7333C158.325 57.423 145.727 68.2149 147.728 71.8377Z" fill="#63A1D0"/>
<defs>
<linearGradient id="paint0_linear_1570_1758" x1="483.577" y1="167.201" x2="36.8944" y2="251.717" gradientUnits="userSpaceOnUse">
<stop stop-color="#4066EA"/>
<stop offset="1" stop-color="#4066EA" stop-opacity="0.4"/>
</linearGradient>
<linearGradient id="paint1_linear_1570_1758" x1="217.887" y1="430.861" x2="100.047" y2="431.442" gradientUnits="userSpaceOnUse">
<stop stop-color="#F3F3F3"/>
<stop offset="1" stop-color="#F3F3F3" stop-opacity="0"/>
</linearGradient>
<linearGradient id="paint2_linear_1570_1758" x1="284.226" y1="9.03467" x2="307.34" y2="61.7944" gradientUnits="userSpaceOnUse">
<stop stop-color="#63A1D0"/>
<stop offset="0.508287" stop-color="#D9EFFF"/>
<stop offset="1" stop-color="#63A1D0"/>
</linearGradient>
<linearGradient id="paint3_linear_1570_1758" x1="80.011" y1="182.54" x2="123.811" y2="199.889" gradientUnits="userSpaceOnUse">
<stop stop-color="#63A1D0"/>
<stop offset="0.508287" stop-color="#D9EFFF"/>
<stop offset="1" stop-color="#63A1D0"/>
</linearGradient>
<linearGradient id="paint4_linear_1570_1758" x1="256.499" y1="277.587" x2="286.351" y2="294.276" gradientUnits="userSpaceOnUse">
<stop stop-color="#63A1D0"/>
<stop offset="0.508287" stop-color="#D9EFFF"/>
<stop offset="1" stop-color="#63A1D0"/>
</linearGradient>
<linearGradient id="paint5_linear_1570_1758" x1="280.301" y1="145.443" x2="332.416" y2="183.958" gradientUnits="userSpaceOnUse">
<stop stop-color="#63A1D0"/>
<stop offset="0.508287" stop-color="#D9EFFF"/>
<stop offset="1" stop-color="#63A1D0"/>
</linearGradient>
<linearGradient id="paint6_linear_1570_1758" x1="143.497" y1="67.7765" x2="206.756" y2="32.3247" gradientUnits="userSpaceOnUse">
<stop stop-color="#63A1D0"/>
<stop offset="0.508287" stop-color="#D9EFFF"/>
<stop offset="1" stop-color="#63A1D0"/>
</linearGradient>
</defs>
</svg>
