<svg width="69" height="69" viewBox="0 0 69 69" fill="none" xmlns="http://www.w3.org/2000/svg">
<path d="M62.4938 20.0791H5.56353C2.53215 20.0791 0.0527344 22.5585 0.0527344 25.5899V62.606C0.0527344 65.6373 2.53215 68.1168 5.56353 68.1168H62.5026C65.5339 68.1168 68.0134 65.6373 68.0134 62.606V25.5899C68.0134 22.5585 65.5252 20.0791 62.4938 20.0791Z" fill="#15C0E6"/>
<path d="M0 34.5508H68.057V43.7413H0V34.5508ZM8.48084 52.4149H27.5277V57.5577H8.48084V52.4149Z" fill="#C7F2FB"/>
<path d="M46.0924 15.5758L33.9932 3.48535L21.9027 15.5758C20.9916 16.487 20.4922 17.696 20.4922 18.9839C20.4922 20.2718 20.9916 21.4809 21.9027 22.4008C22.8139 23.3119 24.0317 23.8113 25.3284 23.8113C26.625 23.8113 27.8604 23.3119 28.7715 22.4095L29.2709 21.9277V31.4511C29.2709 34.1145 31.3824 36.2785 34.0458 36.2785C36.7092 36.2785 38.8206 34.1145 38.8206 31.4511V21.989L39.2674 22.4008C40.1786 23.3119 41.4139 23.8113 42.6931 23.8113C43.9722 23.8113 45.19 23.3119 46.1012 22.4008C47.0123 21.4896 47.5205 20.2718 47.5117 18.9839C47.503 17.696 47.0036 16.487 46.0924 15.5758Z" fill="#87E0F4"/>
<path d="M47.3881 14.2699L36.5943 3.48489L33.9922 0.882812L31.3901 3.48489L20.5963 14.2699C19.3347 15.5315 18.6426 17.1962 18.6426 18.9747C18.6426 20.7532 19.3347 22.4266 20.5963 23.6882C21.8579 24.9498 23.3211 25.642 25.1171 25.642C25.8355 25.642 26.4576 25.5281 26.9832 25.3178V31.4331C26.9832 35.1041 30.0584 38.0916 33.7294 38.0916C37.4003 38.0916 40.4755 35.1041 40.4755 31.4331V25.3441C41.0012 25.5368 41.8948 25.642 42.5694 25.642C44.3392 25.642 46.0739 24.9498 47.3355 23.6882C48.5971 22.4266 49.3155 20.7532 49.3155 18.9659C49.3068 17.1962 48.6409 15.5315 47.3881 14.2699ZM44.7948 21.0949C44.2078 21.6819 43.4543 21.971 42.6921 21.971C41.9298 21.971 41.1764 21.6819 40.5981 21.0949L37.0586 17.5116V31.4331C37.0586 33.0802 35.6393 34.4207 33.9922 34.4207C32.3451 34.4207 30.9258 33.0802 30.9258 31.4331V17.5116L27.3863 21.0949C26.7993 21.6819 26.0633 21.971 25.2923 21.971C24.5213 21.971 23.7679 21.6819 23.1809 21.0949C22.0156 19.9297 22.0244 18.0372 23.1896 16.872L33.9922 6.0782L44.7948 16.872C45.9512 18.0372 45.9688 19.9297 44.7948 21.0949Z" fill="white"/>
</svg>
